<?xml version="1.0" standalone="no"?>
<!DOCTYPE svg PUBLIC "-//W3C//DTD SVG 20010904//EN"
 "http://www.w3.org/TR/2001/REC-SVG-20010904/DTD/svg10.dtd">
<svg version="1.0" xmlns="http://www.w3.org/2000/svg"
 width="626.000000pt" height="626.000000pt" viewBox="0 0 626.000000 626.000000"
 preserveAspectRatio="xMidYMid meet">

<g transform="translate(0.000000,626.000000) scale(0.100000,-0.100000)"
fill="#000000" stroke="none">
<path d="M2930 5035 c-825 -169 -1744 -355 -1753 -355 -5 0 -7 -15 -5 -32 l3
-33 370 -146 c204 -80 528 -208 720 -284 345 -136 351 -139 402 -191 81 -83
97 -136 98 -314 0 -135 -2 -148 -25 -195 -16 -32 -34 -53 -50 -59 -21 -7 -154
44 -773 292 l-747 301 0 -35 c0 -33 4 -37 58 -62 l57 -26 -35 -7 c-33 -6 -32
-6 8 -4 33 2 80 -12 215 -66 95 -38 181 -73 192 -78 28 -13 429 -174 633 -253
64 -26 63 -33 -4 -14 -73 20 -222 55 -279 66 -27 5 -142 33 -255 63 -113 30
-245 65 -295 78 -49 12 -157 43 -240 67 -82 25 -171 51 -198 58 -57 16 -69 22
-62 35 9 13 4 12 -230 -21 -309 -44 -275 -32 -275 -90 0 -46 2 -49 33 -59 17
-6 541 -146 1162 -311 622 -166 1282 -342 1468 -391 l337 -90 143 49 c144 51
807 285 1107 392 91 32 232 81 314 110 l148 52 27 -19 c14 -10 39 -45 55 -77
52 -104 46 -311 -14 -451 -17 -41 -21 -43 -114 -75 -56 -19 -93 -37 -89 -43 4
-6 0 -8 -11 -4 -9 4 -33 0 -54 -8 -20 -8 -172 -62 -337 -120 -165 -58 -322
-114 -350 -124 -124 -46 -210 -77 -504 -181 l-314 -112 -781 222 c-430 122
-1096 312 -1481 421 -384 109 -710 199 -722 199 -21 0 -23 -5 -23 -50 l0 -49
43 -11 c23 -6 85 -24 137 -40 52 -16 286 -83 520 -149 234 -66 439 -125 455
-130 17 -5 50 -15 75 -21 25 -6 74 -20 110 -31 36 -10 297 -84 580 -164 283
-80 553 -157 600 -170 334 -97 479 -135 496 -129 10 3 28 10 39 14 11 5 40 16
65 24 25 8 83 29 130 46 47 17 96 35 110 40 26 8 100 36 135 50 11 5 29 11 40
13 16 5 139 48 260 92 11 4 34 11 50 17 17 5 39 14 50 19 11 4 40 15 65 23 25
8 83 29 130 46 109 40 244 88 295 105 130 42 444 158 465 172 29 18 79 73 81
88 1 6 1 14 0 18 -1 5 3 6 8 3 11 -7 23 22 14 36 -3 6 -2 8 4 5 18 -11 56 141
61 244 7 156 -26 288 -93 367 -40 47 -67 59 -228 92 l-144 30 -54 -26 c-180
-87 -247 -115 -404 -165 -66 -21 -133 -42 -150 -48 -27 -9 -203 -47 -340 -72
-227 -43 -720 -70 -911 -51 -60 6 -142 14 -182 18 -40 3 -72 8 -69 10 2 2 50
13 106 24 57 11 107 22 111 25 15 9 30 104 30 184 0 173 -66 395 -145 489 -28
33 -26 36 21 46 28 6 35 3 53 -23 100 -140 163 -433 133 -616 -5 -33 -9 -61
-7 -63 2 -2 43 5 91 15 104 23 101 19 103 159 1 108 -19 230 -53 332 -28 81
-52 125 -103 189 l-34 42 28 7 c15 3 34 7 41 10 32 10 123 -158 160 -295 22
-83 26 -117 26 -254 1 -119 4 -156 13 -153 7 3 104 23 215 45 592 118 1079
219 1084 224 3 3 5 50 5 104 -1 169 -30 339 -86 506 -34 102 -34 104 15 109
22 3 27 -4 47 -61 60 -166 93 -350 93 -529 0 -103 2 -113 18 -108 9 2 44 10
76 17 l59 13 -6 145 c-8 192 -33 321 -96 503 -21 61 -18 68 33 68 19 0 26 -13
54 -97 56 -174 82 -329 82 -499 0 -57 4 -104 9 -104 23 0 99 71 123 115 74
137 53 402 -42 534 -29 40 -75 71 -105 71 -8 0 -351 135 -762 300 -453 182
-759 300 -777 299 -17 0 -281 -52 -586 -114z"/>
<path d="M1098 3863 c7 -3 16 -2 19 1 4 3 -2 6 -13 5 -11 0 -14 -3 -6 -6z"/>
<path d="M4398 3663 c6 -2 18 -2 25 0 6 3 1 5 -13 5 -14 0 -19 -2 -12 -5z"/>
<path d="M4038 3593 c7 -3 16 -2 19 1 4 3 -2 6 -13 5 -11 0 -14 -3 -6 -6z"/>
<path d="M462 2685 c0 -16 2 -22 5 -12 2 9 2 23 0 30 -3 6 -5 -1 -5 -18z"/>
<path d="M5660 2484 c-69 -19 -219 -59 -335 -88 -115 -30 -374 -97 -575 -149
-201 -53 -491 -128 -645 -167 -285 -73 -462 -119 -640 -167 -130 -35 -171 -72
-207 -183 -20 -65 -23 -95 -23 -230 0 -85 -1 -147 -3 -137 -2 9 -10 17 -19 17
-13 0 -138 47 -298 112 -27 12 -108 42 -180 68 -71 26 -184 68 -250 93 -66 24
-232 86 -370 136 -137 51 -299 112 -360 136 -60 24 -171 66 -245 94 -74 27
-187 71 -250 97 -63 25 -135 54 -160 64 -43 17 -169 68 -255 105 -95 40 -303
141 -337 163 -21 14 -38 32 -39 41 0 10 -2 11 -6 4 -18 -46 71 -293 117 -321
11 -7 152 -62 313 -123 160 -61 384 -146 497 -189 465 -178 555 -210 568 -205
7 2 11 1 7 -4 -3 -5 14 -16 37 -25 24 -9 329 -124 678 -257 349 -133 651 -246
670 -252 36 -10 14 -15 785 169 77 18 471 112 875 209 404 97 750 179 768 182
29 5 32 9 32 44 0 37 0 37 -32 29 -18 -5 -519 -122 -1113 -260 -594 -138
-1109 -257 -1143 -266 -60 -14 -65 -14 -84 3 -31 28 -55 82 -72 166 -33 158
-14 288 52 359 l37 39 465 130 c256 71 544 152 640 179 96 27 387 108 645 180
677 189 605 164 605 205 0 22 -5 35 -12 34 -7 -1 -69 -16 -138 -35z"/>
<path d="M2604 1785 c0 -49 1 -71 3 -48 2 23 2 64 0 90 -2 26 -3 8 -3 -42z"/>
</g>
</svg>
